<svg xmlns="http://www.w3.org/2000/svg" width="54.416" height="64.091" viewBox="0 0 54.416 64.091">
  <path id="Path_25610" data-name="Path 25610" d="M173.243,231.155c.156-.625.308-1.217.451-1.812q1.224-5.1,2.441-10.209.737-3.068,1.486-6.132.739-3.038,1.483-6.075c.874-3.561,1.732-7.122,2.633-10.684.679-2.682,1.4-5.364,2.348-7.977a31.693,31.693,0,0,1,1.262-3.041,15.887,15.887,0,0,1,3.745-5.1,9.483,9.483,0,0,1,4.617-2.36,8.211,8.211,0,0,1,6.882,1.675,10.5,10.5,0,0,1,3.789,6.152,7.526,7.526,0,0,1,.128,2.719,4.8,4.8,0,0,1-.111.546c-.052.2-.118.233-.334.176a18.627,18.627,0,0,0-2.136-.424,13.679,13.679,0,0,0-10.751,2.848,19.615,19.615,0,0,0-4.54,5.256,41.887,41.887,0,0,0-2.862,5.806c-1,2.368-1.863,4.785-2.65,7.234-.73,2.269-1.387,4.563-2,6.863-.768,2.893-1.453,5.813-2.157,8.726-.445,1.827-.9,3.649-1.347,5.476-.84,3.45-1.682,6.909-2.581,10.35-.137.523-.137.526-.668.526h-5.587c-.424-.007-.435-.012-.556-.4s-.223-.751-.327-1.126q-1.992-6.835-3.986-13.67-1.242-4.261-2.475-8.526-1.426-4.906-2.854-9.812c-.641-2.2-1.289-4.395-1.924-6.594a11.713,11.713,0,0,0-2.713-4.759,6.269,6.269,0,0,0-1.475-1.186c-.1-.055-.186-.121-.279-.183a.061.061,0,0,1-.021-.1.169.169,0,0,1,.076-.065.624.624,0,0,1,.165-.018H165c.187,0,.405-.091.556.1-.043.206-.24.267-.374.385a2.928,2.928,0,0,0-.926,1.619,6.5,6.5,0,0,0-.071,2.114,15.608,15.608,0,0,0,.612,2.72q.779,2.681,1.55,5.365,1.359,4.722,2.715,9.446,1.729,6.009,3.464,12.019c.17.591.334,1.183.5,1.781A.466.466,0,0,0,173.243,231.155Z" transform="translate(-150.16 -177.603)" fill="#114f8c" fill-rule="evenodd"/>
</svg>
